<mxfile host="app.diagrams.net" modified="2020-12-09T08:00:35.947Z" agent="5.0 (Windows)" etag="0IT5GLEujHU_DZaTx19g" version="13.11.0" type="github">
  <diagram id="qVAw_95SvzIH4XZqb36K" name="Page-1">
    <mxGraphModel dx="2557" dy="-1380" grid="1" gridSize="10" guides="1" tooltips="1" connect="1" arrows="1" fold="1" page="1" pageScale="1" pageWidth="827" pageHeight="1169" math="0" shadow="0">
      <root>
        <mxCell id="0" />
        <mxCell id="1" parent="0" />
        <mxCell id="4s2vEbkhP99Y_Z4xE4lT-126" value="&lt;span style=&quot;color: rgb(29 , 28 , 29) ; font-family: , &amp;#34;applelogo&amp;#34; , sans-serif ; font-size: 15px ; text-align: left ; background-color: rgb(248 , 248 , 248)&quot;&gt;Un hôtel est composé d&#39;au moins deux chambres.&lt;/span&gt;&lt;br style=&quot;box-sizing: inherit ; color: rgb(29 , 28 , 29) ; font-family: , &amp;#34;applelogo&amp;#34; , sans-serif ; font-size: 15px ; text-align: left ; background-color: rgb(248 , 248 , 248)&quot;&gt;&lt;span style=&quot;color: rgb(29 , 28 , 29) ; font-family: , &amp;#34;applelogo&amp;#34; , sans-serif ; font-size: 15px ; text-align: left ; background-color: rgb(248 , 248 , 248)&quot;&gt;Chaque chambre dispose d&#39;une salle d&#39;eau : douche ou bien baignoire.&lt;/span&gt;&lt;br style=&quot;box-sizing: inherit ; color: rgb(29 , 28 , 29) ; font-family: , &amp;#34;applelogo&amp;#34; , sans-serif ; font-size: 15px ; text-align: left ; background-color: rgb(248 , 248 , 248)&quot;&gt;&lt;span style=&quot;color: rgb(29 , 28 , 29) ; font-family: , &amp;#34;applelogo&amp;#34; , sans-serif ; font-size: 15px ; text-align: left ; background-color: rgb(248 , 248 , 248)&quot;&gt;Un hôtel héberge des personnes.&lt;/span&gt;&lt;br style=&quot;box-sizing: inherit ; color: rgb(29 , 28 , 29) ; font-family: , &amp;#34;applelogo&amp;#34; , sans-serif ; font-size: 15px ; text-align: left ; background-color: rgb(248 , 248 , 248)&quot;&gt;&lt;span style=&quot;color: rgb(29 , 28 , 29) ; font-family: , &amp;#34;applelogo&amp;#34; , sans-serif ; font-size: 15px ; text-align: left ; background-color: rgb(248 , 248 , 248)&quot;&gt;Il peut employer du personnel et il est impérativement dirigé par un directeur.&lt;/span&gt;&lt;br style=&quot;box-sizing: inherit ; color: rgb(29 , 28 , 29) ; font-family: , &amp;#34;applelogo&amp;#34; , sans-serif ; font-size: 15px ; text-align: left ; background-color: rgb(248 , 248 , 248)&quot;&gt;&lt;span style=&quot;color: rgb(29 , 28 , 29) ; font-family: , &amp;#34;applelogo&amp;#34; , sans-serif ; font-size: 15px ; text-align: left ; background-color: rgb(248 , 248 , 248)&quot;&gt;On ne connaît que le nom et le prénom des employés, des directeurs et des occupants.&lt;/span&gt;&lt;br style=&quot;box-sizing: inherit ; color: rgb(29 , 28 , 29) ; font-family: , &amp;#34;applelogo&amp;#34; , sans-serif ; font-size: 15px ; text-align: left ; background-color: rgb(248 , 248 , 248)&quot;&gt;&lt;span style=&quot;color: rgb(29 , 28 , 29) ; font-family: , &amp;#34;applelogo&amp;#34; , sans-serif ; font-size: 15px ; text-align: left ; background-color: rgb(248 , 248 , 248)&quot;&gt;Certaines personnes sont des enfants et d&#39;autres des adultes (faire travailler des enfants est interdit).&lt;/span&gt;&lt;br style=&quot;box-sizing: inherit ; color: rgb(29 , 28 , 29) ; font-family: , &amp;#34;applelogo&amp;#34; , sans-serif ; font-size: 15px ; text-align: left ; background-color: rgb(248 , 248 , 248)&quot;&gt;&lt;span style=&quot;color: rgb(29 , 28 , 29) ; font-family: , &amp;#34;applelogo&amp;#34; , sans-serif ; font-size: 15px ; text-align: left ; background-color: rgb(248 , 248 , 248)&quot;&gt;Un hôtel a les caractéristiques suivantes : une adresse, un nombre de pièces et une catégorie.&lt;/span&gt;&lt;br style=&quot;box-sizing: inherit ; color: rgb(29 , 28 , 29) ; font-family: , &amp;#34;applelogo&amp;#34; , sans-serif ; font-size: 15px ; text-align: left ; background-color: rgb(248 , 248 , 248)&quot;&gt;&lt;span style=&quot;color: rgb(29 , 28 , 29) ; font-family: , &amp;#34;applelogo&amp;#34; , sans-serif ; font-size: 15px ; text-align: left ; background-color: rgb(248 , 248 , 248)&quot;&gt;Une chambre est caractérisée par le nombre de lits qu&#39;elle contient, son prix et son numéro.&lt;/span&gt;&lt;br style=&quot;box-sizing: inherit ; color: rgb(29 , 28 , 29) ; font-family: , &amp;#34;applelogo&amp;#34; , sans-serif ; font-size: 15px ; text-align: left ; background-color: rgb(248 , 248 , 248)&quot;&gt;&lt;span style=&quot;color: rgb(29 , 28 , 29) ; font-family: , &amp;#34;applelogo&amp;#34; , sans-serif ; font-size: 15px ; text-align: left ; background-color: rgb(248 , 248 , 248)&quot;&gt;&lt;br&gt;&lt;br&gt;On veut pouvoir savoir qui occupe quelle chambre à quelle date. Pour chaque jour de l&#39;année, on veut pouvoir&lt;/span&gt;&lt;br style=&quot;box-sizing: inherit ; color: rgb(29 , 28 , 29) ; font-family: , &amp;#34;applelogo&amp;#34; , sans-serif ; font-size: 15px ; text-align: left ; background-color: rgb(248 , 248 , 248)&quot;&gt;&lt;span style=&quot;color: rgb(29 , 28 , 29) ; font-family: , &amp;#34;applelogo&amp;#34; , sans-serif ; font-size: 15px ; text-align: left ; background-color: rgb(248 , 248 , 248)&quot;&gt;calculer le loyer de chaque chambre en fonction de son prix et de son occupation (le loyer est nul si la&lt;/span&gt;&lt;br style=&quot;box-sizing: inherit ; color: rgb(29 , 28 , 29) ; font-family: , &amp;#34;applelogo&amp;#34; , sans-serif ; font-size: 15px ; text-align: left ; background-color: rgb(248 , 248 , 248)&quot;&gt;&lt;span style=&quot;color: rgb(29 , 28 , 29) ; font-family: , &amp;#34;applelogo&amp;#34; , sans-serif ; font-size: 15px ; text-align: left ; background-color: rgb(248 , 248 , 248)&quot;&gt;chambre est inoccupée). La somme de ces loyers permet de calculer le chiffre d&#39;affaires de l&#39;hôtel entre&lt;/span&gt;&lt;br style=&quot;box-sizing: inherit ; color: rgb(29 , 28 , 29) ; font-family: , &amp;#34;applelogo&amp;#34; , sans-serif ; font-size: 15px ; text-align: left ; background-color: rgb(248 , 248 , 248)&quot;&gt;&lt;span style=&quot;color: rgb(29 , 28 , 29) ; font-family: , &amp;#34;applelogo&amp;#34; , sans-serif ; font-size: 15px ; text-align: left ; background-color: rgb(248 , 248 , 248)&quot;&gt;deux dates.&lt;/span&gt;&lt;br style=&quot;box-sizing: inherit ; color: rgb(29 , 28 , 29) ; font-family: , &amp;#34;applelogo&amp;#34; , sans-serif ; font-size: 15px ; text-align: left ; background-color: rgb(248 , 248 , 248)&quot;&gt;&lt;span style=&quot;color: rgb(29 , 28 , 29) ; font-family: , &amp;#34;applelogo&amp;#34; , sans-serif ; font-size: 15px ; text-align: left ; background-color: rgb(248 , 248 , 248)&quot;&gt;Question : Donnez une diagramme de classes pour modéliser le problème de l&#39;hôtel.&lt;/span&gt;" style="text;html=1;align=center;verticalAlign=middle;resizable=0;points=[];autosize=1;" parent="1" vertex="1">
          <mxGeometry y="3265" width="750" height="230" as="geometry" />
        </mxCell>
        <mxCell id="4s2vEbkhP99Y_Z4xE4lT-136" value="Hotel" style="swimlane;fontStyle=1;align=center;verticalAlign=top;childLayout=stackLayout;horizontal=1;startSize=26;horizontalStack=0;resizeParent=1;resizeParentMax=0;resizeLast=0;collapsible=1;marginBottom=0;" parent="1" vertex="1">
          <mxGeometry x="190" y="4030" width="160" height="230" as="geometry" />
        </mxCell>
        <mxCell id="4s2vEbkhP99Y_Z4xE4lT-137" value="- adresse : String&#xa;- nbPieces: int&#xa;- categorie : String" style="text;strokeColor=none;fillColor=none;align=left;verticalAlign=top;spacingLeft=4;spacingRight=4;overflow=hidden;rotatable=0;points=[[0,0.5],[1,0.5]];portConstraint=eastwest;" parent="4s2vEbkhP99Y_Z4xE4lT-136" vertex="1">
          <mxGeometry y="26" width="160" height="64" as="geometry" />
        </mxCell>
        <mxCell id="4s2vEbkhP99Y_Z4xE4lT-138" value="" style="line;strokeWidth=1;fillColor=none;align=left;verticalAlign=middle;spacingTop=-1;spacingLeft=3;spacingRight=3;rotatable=0;labelPosition=right;points=[];portConstraint=eastwest;" parent="4s2vEbkhP99Y_Z4xE4lT-136" vertex="1">
          <mxGeometry y="90" width="160" height="8" as="geometry" />
        </mxCell>
        <mxCell id="4s2vEbkhP99Y_Z4xE4lT-139" value="+ Hotel (String adresse, &#xa;int nbPieces, String cat)&#xa;+getAdresse() : String&#xa;+getNbPieces() : int&#xa;+getCategorie() : String" style="text;strokeColor=none;fillColor=none;align=left;verticalAlign=top;spacingLeft=4;spacingRight=4;overflow=hidden;rotatable=0;points=[[0,0.5],[1,0.5]];portConstraint=eastwest;" parent="4s2vEbkhP99Y_Z4xE4lT-136" vertex="1">
          <mxGeometry y="98" width="160" height="132" as="geometry" />
        </mxCell>
        <mxCell id="4s2vEbkhP99Y_Z4xE4lT-140" value="Chambre" style="swimlane;fontStyle=1;align=center;verticalAlign=top;childLayout=stackLayout;horizontal=1;startSize=26;horizontalStack=0;resizeParent=1;resizeParentMax=0;resizeLast=0;collapsible=1;marginBottom=0;" parent="1" vertex="1">
          <mxGeometry x="190" y="3730" width="160" height="240" as="geometry" />
        </mxCell>
        <mxCell id="4s2vEbkhP99Y_Z4xE4lT-141" value="- nombreLit : int&#xa;- Prix : float&#xa;- numero : int&#xa;- occupe : boolean&#xa;- dateDuJour : Date" style="text;strokeColor=none;fillColor=none;align=left;verticalAlign=top;spacingLeft=4;spacingRight=4;overflow=hidden;rotatable=0;points=[[0,0.5],[1,0.5]];portConstraint=eastwest;" parent="4s2vEbkhP99Y_Z4xE4lT-140" vertex="1">
          <mxGeometry y="26" width="160" height="74" as="geometry" />
        </mxCell>
        <mxCell id="4s2vEbkhP99Y_Z4xE4lT-142" value="" style="line;strokeWidth=1;fillColor=none;align=left;verticalAlign=middle;spacingTop=-1;spacingLeft=3;spacingRight=3;rotatable=0;labelPosition=right;points=[];portConstraint=eastwest;" parent="4s2vEbkhP99Y_Z4xE4lT-140" vertex="1">
          <mxGeometry y="100" width="160" height="8" as="geometry" />
        </mxCell>
        <mxCell id="4s2vEbkhP99Y_Z4xE4lT-143" value="+ Chambre (int lit, float prix,&#xa;boolean etat, Date date)&#xa;+getNombreLit() : int&#xa;+getPrix() : float&#xa;+getNumero() : int&#xa;+getOccupe() : boolean&#xa;+getPersonne() : Personne[]&#xa;+getDate() : Date" style="text;strokeColor=none;fillColor=none;align=left;verticalAlign=top;spacingLeft=4;spacingRight=4;overflow=hidden;rotatable=0;points=[[0,0.5],[1,0.5]];portConstraint=eastwest;" parent="4s2vEbkhP99Y_Z4xE4lT-140" vertex="1">
          <mxGeometry y="108" width="160" height="132" as="geometry" />
        </mxCell>
        <mxCell id="4s2vEbkhP99Y_Z4xE4lT-144" value="Personne" style="swimlane;fontStyle=3;align=center;verticalAlign=top;childLayout=stackLayout;horizontal=1;startSize=26;horizontalStack=0;resizeParent=1;resizeParentMax=0;resizeLast=0;collapsible=1;marginBottom=0;" parent="1" vertex="1">
          <mxGeometry x="-740" y="3938" width="160" height="220" as="geometry" />
        </mxCell>
        <mxCell id="4s2vEbkhP99Y_Z4xE4lT-145" value="- nom : String&#xa;- Prenom : String" style="text;strokeColor=none;fillColor=none;align=left;verticalAlign=top;spacingLeft=4;spacingRight=4;overflow=hidden;rotatable=0;points=[[0,0.5],[1,0.5]];portConstraint=eastwest;" parent="4s2vEbkhP99Y_Z4xE4lT-144" vertex="1">
          <mxGeometry y="26" width="160" height="44" as="geometry" />
        </mxCell>
        <mxCell id="4s2vEbkhP99Y_Z4xE4lT-146" value="" style="line;strokeWidth=1;fillColor=none;align=left;verticalAlign=middle;spacingTop=-1;spacingLeft=3;spacingRight=3;rotatable=0;labelPosition=right;points=[];portConstraint=eastwest;" parent="4s2vEbkhP99Y_Z4xE4lT-144" vertex="1">
          <mxGeometry y="70" width="160" height="8" as="geometry" />
        </mxCell>
        <mxCell id="4s2vEbkhP99Y_Z4xE4lT-147" value="+ Personne (String nom, &#xa;string prenom)&#xa;+getNom() : String&#xa;+getPrenom() : String&#xa;+toString : String" style="text;strokeColor=none;fillColor=none;align=left;verticalAlign=top;spacingLeft=4;spacingRight=4;overflow=hidden;rotatable=0;points=[[0,0.5],[1,0.5]];portConstraint=eastwest;" parent="4s2vEbkhP99Y_Z4xE4lT-144" vertex="1">
          <mxGeometry y="78" width="160" height="142" as="geometry" />
        </mxCell>
        <mxCell id="4s2vEbkhP99Y_Z4xE4lT-148" value="Personnel" style="swimlane;fontStyle=1;align=center;verticalAlign=top;childLayout=stackLayout;horizontal=1;startSize=26;horizontalStack=0;resizeParent=1;resizeParentMax=0;resizeLast=0;collapsible=1;marginBottom=0;" parent="1" vertex="1">
          <mxGeometry x="-160" y="4200" width="160" height="86" as="geometry" />
        </mxCell>
        <mxCell id="4s2vEbkhP99Y_Z4xE4lT-149" value="+ field: type" style="text;strokeColor=none;fillColor=none;align=left;verticalAlign=top;spacingLeft=4;spacingRight=4;overflow=hidden;rotatable=0;points=[[0,0.5],[1,0.5]];portConstraint=eastwest;" parent="4s2vEbkhP99Y_Z4xE4lT-148" vertex="1">
          <mxGeometry y="26" width="160" height="26" as="geometry" />
        </mxCell>
        <mxCell id="4s2vEbkhP99Y_Z4xE4lT-150" value="" style="line;strokeWidth=1;fillColor=none;align=left;verticalAlign=middle;spacingTop=-1;spacingLeft=3;spacingRight=3;rotatable=0;labelPosition=right;points=[];portConstraint=eastwest;" parent="4s2vEbkhP99Y_Z4xE4lT-148" vertex="1">
          <mxGeometry y="52" width="160" height="8" as="geometry" />
        </mxCell>
        <mxCell id="4s2vEbkhP99Y_Z4xE4lT-151" value="+ method(type): type" style="text;strokeColor=none;fillColor=none;align=left;verticalAlign=top;spacingLeft=4;spacingRight=4;overflow=hidden;rotatable=0;points=[[0,0.5],[1,0.5]];portConstraint=eastwest;" parent="4s2vEbkhP99Y_Z4xE4lT-148" vertex="1">
          <mxGeometry y="60" width="160" height="26" as="geometry" />
        </mxCell>
        <mxCell id="4s2vEbkhP99Y_Z4xE4lT-152" value="Directeur" style="swimlane;fontStyle=1;align=center;verticalAlign=top;childLayout=stackLayout;horizontal=1;startSize=26;horizontalStack=0;resizeParent=1;resizeParentMax=0;resizeLast=0;collapsible=1;marginBottom=0;" parent="1" vertex="1">
          <mxGeometry x="-160" y="4049" width="160" height="86" as="geometry" />
        </mxCell>
        <mxCell id="4s2vEbkhP99Y_Z4xE4lT-153" value="+ field: type" style="text;strokeColor=none;fillColor=none;align=left;verticalAlign=top;spacingLeft=4;spacingRight=4;overflow=hidden;rotatable=0;points=[[0,0.5],[1,0.5]];portConstraint=eastwest;" parent="4s2vEbkhP99Y_Z4xE4lT-152" vertex="1">
          <mxGeometry y="26" width="160" height="26" as="geometry" />
        </mxCell>
        <mxCell id="4s2vEbkhP99Y_Z4xE4lT-154" value="" style="line;strokeWidth=1;fillColor=none;align=left;verticalAlign=middle;spacingTop=-1;spacingLeft=3;spacingRight=3;rotatable=0;labelPosition=right;points=[];portConstraint=eastwest;" parent="4s2vEbkhP99Y_Z4xE4lT-152" vertex="1">
          <mxGeometry y="52" width="160" height="8" as="geometry" />
        </mxCell>
        <mxCell id="4s2vEbkhP99Y_Z4xE4lT-155" value="+ method(type): type" style="text;strokeColor=none;fillColor=none;align=left;verticalAlign=top;spacingLeft=4;spacingRight=4;overflow=hidden;rotatable=0;points=[[0,0.5],[1,0.5]];portConstraint=eastwest;" parent="4s2vEbkhP99Y_Z4xE4lT-152" vertex="1">
          <mxGeometry y="60" width="160" height="26" as="geometry" />
        </mxCell>
        <mxCell id="4s2vEbkhP99Y_Z4xE4lT-161" value="Adulte" style="swimlane;fontStyle=1;align=center;verticalAlign=top;childLayout=stackLayout;horizontal=1;startSize=26;horizontalStack=0;resizeParent=1;resizeParentMax=0;resizeLast=0;collapsible=1;marginBottom=0;" parent="1" vertex="1">
          <mxGeometry x="-500" y="4100" width="160" height="86" as="geometry" />
        </mxCell>
        <mxCell id="4s2vEbkhP99Y_Z4xE4lT-162" value="+ field: type" style="text;strokeColor=none;fillColor=none;align=left;verticalAlign=top;spacingLeft=4;spacingRight=4;overflow=hidden;rotatable=0;points=[[0,0.5],[1,0.5]];portConstraint=eastwest;" parent="4s2vEbkhP99Y_Z4xE4lT-161" vertex="1">
          <mxGeometry y="26" width="160" height="26" as="geometry" />
        </mxCell>
        <mxCell id="4s2vEbkhP99Y_Z4xE4lT-163" value="" style="line;strokeWidth=1;fillColor=none;align=left;verticalAlign=middle;spacingTop=-1;spacingLeft=3;spacingRight=3;rotatable=0;labelPosition=right;points=[];portConstraint=eastwest;" parent="4s2vEbkhP99Y_Z4xE4lT-161" vertex="1">
          <mxGeometry y="52" width="160" height="8" as="geometry" />
        </mxCell>
        <mxCell id="4s2vEbkhP99Y_Z4xE4lT-164" value="+ method(type): type" style="text;strokeColor=none;fillColor=none;align=left;verticalAlign=top;spacingLeft=4;spacingRight=4;overflow=hidden;rotatable=0;points=[[0,0.5],[1,0.5]];portConstraint=eastwest;" parent="4s2vEbkhP99Y_Z4xE4lT-161" vertex="1">
          <mxGeometry y="60" width="160" height="26" as="geometry" />
        </mxCell>
        <mxCell id="4s2vEbkhP99Y_Z4xE4lT-165" value="Enfant" style="swimlane;fontStyle=1;align=center;verticalAlign=top;childLayout=stackLayout;horizontal=1;startSize=26;horizontalStack=0;resizeParent=1;resizeParentMax=0;resizeLast=0;collapsible=1;marginBottom=0;" parent="1" vertex="1">
          <mxGeometry x="-500" y="3960" width="160" height="86" as="geometry" />
        </mxCell>
        <mxCell id="4s2vEbkhP99Y_Z4xE4lT-166" value="+ field: type" style="text;strokeColor=none;fillColor=none;align=left;verticalAlign=top;spacingLeft=4;spacingRight=4;overflow=hidden;rotatable=0;points=[[0,0.5],[1,0.5]];portConstraint=eastwest;" parent="4s2vEbkhP99Y_Z4xE4lT-165" vertex="1">
          <mxGeometry y="26" width="160" height="26" as="geometry" />
        </mxCell>
        <mxCell id="4s2vEbkhP99Y_Z4xE4lT-167" value="" style="line;strokeWidth=1;fillColor=none;align=left;verticalAlign=middle;spacingTop=-1;spacingLeft=3;spacingRight=3;rotatable=0;labelPosition=right;points=[];portConstraint=eastwest;" parent="4s2vEbkhP99Y_Z4xE4lT-165" vertex="1">
          <mxGeometry y="52" width="160" height="8" as="geometry" />
        </mxCell>
        <mxCell id="4s2vEbkhP99Y_Z4xE4lT-168" value="+ method(type): type" style="text;strokeColor=none;fillColor=none;align=left;verticalAlign=top;spacingLeft=4;spacingRight=4;overflow=hidden;rotatable=0;points=[[0,0.5],[1,0.5]];portConstraint=eastwest;" parent="4s2vEbkhP99Y_Z4xE4lT-165" vertex="1">
          <mxGeometry y="60" width="160" height="26" as="geometry" />
        </mxCell>
        <mxCell id="4s2vEbkhP99Y_Z4xE4lT-173" value="" style="endArrow=none;html=1;startArrow=blockThin;startFill=0;entryX=0;entryY=0.5;entryDx=0;entryDy=0;exitX=1;exitY=0.5;exitDx=0;exitDy=0;" parent="1" source="4s2vEbkhP99Y_Z4xE4lT-145" target="4s2vEbkhP99Y_Z4xE4lT-166" edge="1">
          <mxGeometry width="50" height="50" relative="1" as="geometry">
            <mxPoint x="-550" y="4010" as="sourcePoint" />
            <mxPoint x="-30" y="3910" as="targetPoint" />
          </mxGeometry>
        </mxCell>
        <mxCell id="4s2vEbkhP99Y_Z4xE4lT-174" value="" style="endArrow=none;html=1;startArrow=blockThin;startFill=0;exitX=1;exitY=0.5;exitDx=0;exitDy=0;entryX=0;entryY=0.5;entryDx=0;entryDy=0;" parent="1" source="4s2vEbkhP99Y_Z4xE4lT-147" target="4s2vEbkhP99Y_Z4xE4lT-162" edge="1">
          <mxGeometry width="50" height="50" relative="1" as="geometry">
            <mxPoint x="-570" y="3996" as="sourcePoint" />
            <mxPoint x="-490" y="3949" as="targetPoint" />
          </mxGeometry>
        </mxCell>
        <mxCell id="4s2vEbkhP99Y_Z4xE4lT-177" value="" style="endArrow=block;html=1;endFill=0;entryX=1;entryY=0.5;entryDx=0;entryDy=0;exitX=0;exitY=0.5;exitDx=0;exitDy=0;" parent="1" source="4s2vEbkhP99Y_Z4xE4lT-153" target="4s2vEbkhP99Y_Z4xE4lT-162" edge="1">
          <mxGeometry width="50" height="50" relative="1" as="geometry">
            <mxPoint x="-200" y="4060" as="sourcePoint" />
            <mxPoint x="-320" y="3959" as="targetPoint" />
          </mxGeometry>
        </mxCell>
        <mxCell id="4s2vEbkhP99Y_Z4xE4lT-178" value="" style="endArrow=block;html=1;endFill=0;entryX=0.998;entryY=0.974;entryDx=0;entryDy=0;exitX=0;exitY=0.5;exitDx=0;exitDy=0;entryPerimeter=0;" parent="1" source="4s2vEbkhP99Y_Z4xE4lT-149" target="4s2vEbkhP99Y_Z4xE4lT-164" edge="1">
          <mxGeometry width="50" height="50" relative="1" as="geometry">
            <mxPoint x="-130" y="3969" as="sourcePoint" />
            <mxPoint x="-310" y="3969" as="targetPoint" />
          </mxGeometry>
        </mxCell>
        <mxCell id="4s2vEbkhP99Y_Z4xE4lT-179" value="" style="endArrow=diamond;html=1;endFill=1;entryX=0.5;entryY=0;entryDx=0;entryDy=0;" parent="1" source="4s2vEbkhP99Y_Z4xE4lT-143" target="4s2vEbkhP99Y_Z4xE4lT-136" edge="1">
          <mxGeometry width="50" height="50" relative="1" as="geometry">
            <mxPoint x="320" y="4000" as="sourcePoint" />
            <mxPoint x="350" y="4010" as="targetPoint" />
          </mxGeometry>
        </mxCell>
        <mxCell id="4s2vEbkhP99Y_Z4xE4lT-182" value="" style="endArrow=none;html=1;entryX=0;entryY=0.5;entryDx=0;entryDy=0;exitX=1;exitY=0.5;exitDx=0;exitDy=0;startArrow=block;startFill=1;" parent="1" source="4s2vEbkhP99Y_Z4xE4lT-153" target="4s2vEbkhP99Y_Z4xE4lT-137" edge="1">
          <mxGeometry width="50" height="50" relative="1" as="geometry">
            <mxPoint x="-80" y="3820" as="sourcePoint" />
            <mxPoint x="-30" y="3770" as="targetPoint" />
          </mxGeometry>
        </mxCell>
        <mxCell id="4s2vEbkhP99Y_Z4xE4lT-183" value="1" style="text;html=1;align=center;verticalAlign=middle;resizable=0;points=[];autosize=1;" parent="1" vertex="1">
          <mxGeometry x="10" y="4090" width="20" height="20" as="geometry" />
        </mxCell>
        <mxCell id="4s2vEbkhP99Y_Z4xE4lT-184" value="1..*" style="text;html=1;align=center;verticalAlign=middle;resizable=0;points=[];autosize=1;" parent="1" vertex="1">
          <mxGeometry x="150" y="4090" width="30" height="20" as="geometry" />
        </mxCell>
        <mxCell id="4s2vEbkhP99Y_Z4xE4lT-186" value="2..*" style="text;html=1;align=center;verticalAlign=middle;resizable=0;points=[];autosize=1;" parent="1" vertex="1">
          <mxGeometry x="230" y="3970" width="30" height="20" as="geometry" />
        </mxCell>
        <mxCell id="4s2vEbkhP99Y_Z4xE4lT-187" value="1" style="text;html=1;align=center;verticalAlign=middle;resizable=0;points=[];autosize=1;" parent="1" vertex="1">
          <mxGeometry x="235" y="4010" width="20" height="20" as="geometry" />
        </mxCell>
        <mxCell id="4s2vEbkhP99Y_Z4xE4lT-189" value="0..n" style="text;html=1;align=center;verticalAlign=middle;resizable=0;points=[];autosize=1;" parent="1" vertex="1">
          <mxGeometry x="-600" y="3910" width="40" height="20" as="geometry" />
        </mxCell>
        <mxCell id="4s2vEbkhP99Y_Z4xE4lT-190" value="0..1" style="text;html=1;align=center;verticalAlign=middle;resizable=0;points=[];autosize=1;" parent="1" vertex="1">
          <mxGeometry x="130" y="3770" width="40" height="20" as="geometry" />
        </mxCell>
        <mxCell id="4s2vEbkhP99Y_Z4xE4lT-196" value="" style="endArrow=none;html=1;entryX=0;entryY=0.5;entryDx=0;entryDy=0;exitX=1;exitY=0;exitDx=0;exitDy=0;" parent="1" source="4s2vEbkhP99Y_Z4xE4lT-144" target="4s2vEbkhP99Y_Z4xE4lT-141" edge="1">
          <mxGeometry width="50" height="50" relative="1" as="geometry">
            <mxPoint x="-580" y="3938" as="sourcePoint" />
            <mxPoint x="-165" y="3855" as="targetPoint" />
          </mxGeometry>
        </mxCell>
        <mxCell id="4s2vEbkhP99Y_Z4xE4lT-199" value="&lt;p style=&quot;margin: 0px ; margin-top: 4px ; text-align: center&quot;&gt;&lt;i&gt;&amp;lt;&amp;lt;Interface&amp;gt;&amp;gt;&lt;/i&gt;&lt;/p&gt;&lt;p style=&quot;margin: 0px ; margin-top: 4px ; text-align: center&quot;&gt;&lt;i&gt;&lt;b&gt;CalculLoyer&lt;/b&gt;&lt;/i&gt;&lt;br&gt;&lt;/p&gt;&lt;p style=&quot;margin: 0px ; margin-left: 4px&quot;&gt;&lt;/p&gt;&lt;p style=&quot;margin: 0px ; margin-left: 4px&quot;&gt;&lt;br&gt;&lt;/p&gt;&lt;p style=&quot;margin: 0px ; margin-left: 4px&quot;&gt;+ getLoyer(): Float&lt;br&gt;+ getCA(): Float&lt;br&gt;&lt;/p&gt;" style="verticalAlign=top;align=left;overflow=fill;fontSize=12;fontFamily=Helvetica;html=1;" parent="1" vertex="1">
          <mxGeometry x="188.13" y="3540" width="163.75" height="100" as="geometry" />
        </mxCell>
        <mxCell id="4s2vEbkhP99Y_Z4xE4lT-200" value="" style="endArrow=none;html=1;startArrow=blockThin;startFill=0;entryX=0.5;entryY=0;entryDx=0;entryDy=0;exitX=0.5;exitY=1;exitDx=0;exitDy=0;" parent="1" source="4s2vEbkhP99Y_Z4xE4lT-199" target="4s2vEbkhP99Y_Z4xE4lT-140" edge="1">
          <mxGeometry width="50" height="50" relative="1" as="geometry">
            <mxPoint x="-570" y="3996" as="sourcePoint" />
            <mxPoint x="-490" y="4009" as="targetPoint" />
          </mxGeometry>
        </mxCell>
      </root>
    </mxGraphModel>
  </diagram>
</mxfile>
